<svg width="21" height="21" viewBox="0 0 21 21" fill="none" xmlns="http://www.w3.org/2000/svg">
<g opacity="0.6">
<g filter="url(#filter0_d_193_4732)">
<path d="M10.5 13C13.5376 13 16 10.5376 16 7.5C16 4.46244 13.5376 2 10.5 2C7.46244 2 5 4.46244 5 7.5C5 8.3798 5.20659 9.2114 5.5739 9.94885C5.67151 10.1448 5.704 10.3689 5.64742 10.5804L5.31983 11.8047C5.17763 12.3362 5.66386 12.8224 6.19534 12.6802L7.41966 12.3526C7.63117 12.296 7.85517 12.3285 8.05114 12.4261C8.7886 12.7934 9.6202 13 10.5 13Z" stroke="black" shape-rendering="crispEdges"/>
</g>
<path d="M9.94995 7.50019C9.94995 7.80394 10.1962 8.0502 10.5 8.0502C10.8037 8.0502 11.05 7.80394 11.05 7.50019C11.05 7.19644 10.8037 6.9502 10.5 6.9502C10.1962 6.9502 9.94995 7.19644 9.94995 7.50019Z" fill="black"/>
<path d="M7.75 7.50019C7.75 7.80394 7.99624 8.0502 8.3 8.0502C8.60375 8.0502 8.85 7.80394 8.85 7.50019C8.85 7.19644 8.60375 6.9502 8.3 6.9502C7.99624 6.9502 7.75 7.19644 7.75 7.50019Z" fill="black"/>
<path d="M12.15 7.50019C12.15 7.80394 12.3963 8.0502 12.7 8.0502C13.0038 8.0502 13.25 7.80394 13.25 7.50019C13.25 7.19644 13.0038 6.9502 12.7 6.9502C12.3963 6.9502 12.15 7.19644 12.15 7.50019Z" fill="black"/>
</g>
<defs>
<filter id="filter0_d_193_4732" x="0.5" y="0.5" width="20" height="20" filterUnits="userSpaceOnUse" color-interpolation-filters="sRGB">
<feFlood flood-opacity="0" result="BackgroundImageFix"/>
<feColorMatrix in="SourceAlpha" type="matrix" values="0 0 0 0 0 0 0 0 0 0 0 0 0 0 0 0 0 0 127 0" result="hardAlpha"/>
<feOffset dy="3"/>
<feGaussianBlur stdDeviation="2"/>
<feComposite in2="hardAlpha" operator="out"/>
<feColorMatrix type="matrix" values="0 0 0 0 0 0 0 0 0 0 0 0 0 0 0 0 0 0 0.17 0"/>
<feBlend mode="normal" in2="BackgroundImageFix" result="effect1_dropShadow_193_4732"/>
<feBlend mode="normal" in="SourceGraphic" in2="effect1_dropShadow_193_4732" result="shape"/>
</filter>
</defs>
</svg>
