<svg width="36" height="36" viewBox="0 0 36 36" fill="none" xmlns="http://www.w3.org/2000/svg">
<g clip-path="url(#clip0_171_4723)">
<path d="M30 13.25C28.4392 13.2499 26.9178 12.7602 25.65 11.85C25.5791 12.0398 25.4522 12.2036 25.2861 12.3197C25.12 12.4358 24.9226 12.4987 24.72 12.5H11.28C11.0148 12.5 10.7604 12.3947 10.5729 12.2071C10.3854 12.0196 10.28 11.7652 10.28 11.5C10.28 11.2348 10.3854 10.9805 10.5729 10.7929C10.7604 10.6054 11.0148 10.5 11.28 10.5H24.2C23.3825 9.49263 22.8418 8.28945 22.6314 7.00925C22.4209 5.72906 22.548 4.41611 23 3.20002C21.3745 2.73295 19.6913 2.4973 18 2.50002C9.18 2.50002 2 8.78002 2 16.5C2 24.22 9.18 30.5 18 30.5C19.6501 30.4981 21.2922 30.2693 22.88 29.82L28.41 33.34C28.561 33.4369 28.7352 33.4914 28.9145 33.4977C29.0937 33.5041 29.2714 33.4621 29.4289 33.3763C29.5863 33.2904 29.7178 33.1637 29.8095 33.0095C29.9012 32.8554 29.9497 32.6794 29.95 32.5V25.77C31.2012 24.5697 32.1997 23.1312 32.8867 21.5392C33.5736 19.9472 33.9352 18.2339 33.95 16.5C33.9456 15.1383 33.7158 13.7867 33.27 12.5C32.2511 12.9951 31.1328 13.2515 30 13.25ZM21.75 22.5H14.25C13.9848 22.5 13.7304 22.3947 13.5429 22.2071C13.3554 22.0196 13.25 21.7652 13.25 21.5C13.25 21.2348 13.3554 20.9805 13.5429 20.7929C13.7304 20.6054 13.9848 20.5 14.25 20.5H21.75C22.0152 20.5 22.2696 20.6054 22.4571 20.7929C22.6446 20.9805 22.75 21.2348 22.75 21.5C22.75 21.7652 22.6446 22.0196 22.4571 22.2071C22.2696 22.3947 22.0152 22.5 21.75 22.5ZM25 17.5H11C10.7348 17.5 10.4804 17.3947 10.2929 17.2071C10.1054 17.0196 10 16.7652 10 16.5C10 16.2348 10.1054 15.9805 10.2929 15.7929C10.4804 15.6054 10.7348 15.5 11 15.5H25C25.2652 15.5 25.5196 15.6054 25.7071 15.7929C25.8946 15.9805 26 16.2348 26 16.5C26 16.7652 25.8946 17.0196 25.7071 17.2071C25.5196 17.3947 25.2652 17.5 25 17.5Z" fill="#0086D3"/>
<path d="M30 10.75C32.7614 10.75 35 8.51142 35 5.75C35 2.98858 32.7614 0.75 30 0.75C27.2386 0.75 25 2.98858 25 5.75C25 8.51142 27.2386 10.75 30 10.75Z" fill="#F11717"/>
</g>
<defs>
<clipPath id="clip0_171_4723">
<rect width="36" height="36" fill="white"/>
</clipPath>
</defs>
</svg>
