<svg width="12" height="12" viewBox="0 0 12 12" fill="none" xmlns="http://www.w3.org/2000/svg">
<path fill-rule="evenodd" clip-rule="evenodd" d="M1.27301 0.212346C0.980113 -0.0805475 0.505239 -0.0805475 0.212346 0.212346C-0.0805475 0.505239 -0.0805475 0.980113 0.212346 1.27301L4.93291 5.99357L0.212346 10.7141C-0.0805475 11.007 -0.0805475 11.4819 0.212346 11.7748C0.505239 12.0677 0.980113 12.0677 1.27301 11.7748L5.99357 7.05423L10.7141 11.7748C11.007 12.0677 11.4819 12.0677 11.7748 11.7748C12.0677 11.4819 12.0677 11.007 11.7748 10.7141L7.05423 5.99357L11.7748 1.27301C12.0677 0.980113 12.0677 0.505239 11.7748 0.212346C11.4819 -0.0805475 11.007 -0.0805475 10.7141 0.212346L5.99357 4.93291L1.27301 0.212346Z" fill="black"/>
</svg>
